ffmpeg version git-2026-04-19-de18feb Copyright (c) 2000-2026 the FFmpeg developers
  built with gcc 9 (Ubuntu 9.4.0-1ubuntu1~20.04.2)
  configuration: --enable-shared --enable-gpl --enable-libx264
  libavutil      60. 30.100 / 60. 30.100
  libavcodec     62. 30.100 / 62. 30.100
  libavformat    62. 13.102 / 62. 13.102
  libavdevice    62.  4.100 / 62.  4.100
  libavfilter    11. 15.101 / 11. 15.101
  libswscale      9.  7.100 /  9.  7.100
  libswresample   6.  4.100 /  6.  4.100
[in#0/x11grab @ 0x55bd296c3c40] Stream #0: not enough frames to estimate rate; consider increasing probesize
Input #0, x11grab, from ':0.0+0,0':
  Duration: N/A, start: 1777441945.485388, bitrate: 3678192 kb/s
  Stream #0:0: Video: rawvideo (BGR[0] / 0x524742), bgr0, 2870x1602, 3678192 kb/s, 25 fps, 1000k tbr, 1000k tbn, start 1777441945.485388
Stream mapping:
  Stream #0:0 -> #0:0 (rawvideo (native) -> h264 (libx264))
[libx264 @ 0x55bd296d1f00] using cpu capabilities: MMX2 SSE2Fast SSSE3 SSE4.2 AVX FMA3 BMI2 AVX2
[libx264 @ 0x55bd296d1f00] profile High, level 5.0
[libx264 @ 0x55bd296d1f00] 264 - core 155 r2917 0a84d98 - H.264/MPEG-4 AVC codec - Copyleft 2003-2018 - http://www.videolan.org/x264.html - options: cabac=1 ref=1 deblock=1:0:0 analyse=0x3:0x113 me=hex subme=2 psy=1 psy_rd=1.00:0.00 mixed_ref=0 me_range=16 chroma_me=1 trellis=0 8x8dct=1 cqm=0 deadzone=21,11 fast_pskip=1 chroma_qp_offset=0 threads=6 lookahead_threads=2 sliced_threads=0 nr=0 decimate=1 interlaced=0 bluray_compat=0 constrained_intra=0 bframes=3 b_pyramid=2 b_adapt=1 b_bias=0 direct=1 weightb=1 open_gop=0 weightp=1 keyint=250 keyint_min=25 scenecut=40 intra_refresh=0 rc_lookahead=10 rc=crf mbtree=1 crf=23.0 qcomp=0.60 qpmin=0 qpmax=69 qpstep=4 ip_ratio=1.40 aq=1:1.00
Output #0, matroska, to '/home/lmy/catkin_ws/recordings_tmp/exp_15_segment/screen.mkv':
  Metadata:
    encoder         : Lavf62.13.102
  Stream #0:0: Video: h264 (H264 / 0x34363248), yuv420p(tv, progressive), 2870x1602, q=2-31, 25 fps, 1k tbn
    Metadata:
      encoder         : Lavc62.30.100 libx264
    Side data:
      CPB properties: bitrate max/min/avg: 0/0/0 buffer size: 0 vbv_delay: N/A
frame=    0 fps=0.0 q=0.0 size=       0KiB time=N/A bitrate=N/A speed=N/A elapsed=0:00:00.50    frame=    6 fps=6.0 q=28.0 size=       1KiB time=00:00:00.16 bitrate=  29.7kbits/s speed=0.16x elapsed=0:00:01.00    frame=   18 fps= 12 q=28.0 size=       1KiB time=00:00:00.64 bitrate=   7.4kbits/s speed=0.426x elapsed=0:00:01.50    frame=   30 fps= 15 q=28.0 size=       1KiB time=00:00:01.12 bitrate=   4.2kbits/s speed=0.56x elapsed=0:00:02.00    frame=   43 fps= 17 q=28.0 size=       1KiB time=00:00:01.64 bitrate=   2.9kbits/s speed=0.656x elapsed=0:00:02.50    frame=   56 fps= 19 q=28.0 size=       1KiB time=00:00:02.16 bitrate=   2.2kbits/s speed=0.72x elapsed=0:00:03.00    frame=   68 fps= 19 q=28.0 size=       1KiB time=00:00:02.64 bitrate=   1.8kbits/s speed=0.754x elapsed=0:00:03.50    frame=   81 fps= 20 q=28.0 size=       1KiB time=00:00:03.16 bitrate=   1.5kbits/s speed=0.79x elapsed=0:00:04.00    frame=   93 fps= 21 q=28.0 size=       1KiB time=00:00:03.64 bitrate=   1.3kbits/s speed=0.809x elapsed=0:00:04.50    frame=  106 fps= 21 q=28.0 size=       1KiB time=00:00:04.16 bitrate=   1.1kbits/s speed=0.831x elapsed=0:00:05.00    frame=  118 fps= 21 q=28.0 size=       1KiB time=00:00:04.64 bitrate=   1.0kbits/s speed=0.843x elapsed=0:00:05.50    frame=  131 fps= 22 q=28.0 size=     172KiB time=00:00:05.16 bitrate= 272.5kbits/s speed=0.859x elapsed=0:00:06.00    frame=  143 fps= 22 q=28.0 size=     172KiB time=00:00:05.64 bitrate= 249.3kbits/s speed=0.867x elapsed=0:00:06.50    frame=  156 fps= 22 q=28.0 size=     172KiB time=00:00:06.16 bitrate= 228.3kbits/s speed=0.879x elapsed=0:00:07.00    frame=  168 fps= 22 q=28.0 size=     172KiB time=00:00:06.64 bitrate= 211.8kbits/s speed=0.884x elapsed=0:00:07.50    frame=  181 fps= 23 q=28.0 size=     172KiB time=00:00:07.16 bitrate= 196.4kbits/s speed=0.894x elapsed=0:00:08.00    frame=  193 fps= 23 q=28.0 size=     172KiB time=00:00:07.64 bitrate= 184.1kbits/s speed=0.898x elapsed=0:00:08.50    frame=  206 fps= 23 q=28.0 size=     172KiB time=00:00:08.16 bitrate= 172.3kbits/s speed=0.906x elapsed=0:00:09.00    frame=  218 fps= 23 q=28.0 size=     172KiB time=00:00:08.64 bitrate= 162.8kbits/s speed=0.909x elapsed=0:00:09.50    frame=  231 fps= 23 q=28.0 size=     172KiB time=00:00:09.16 bitrate= 153.5kbits/s speed=0.915x elapsed=0:00:10.00    frame=  243 fps= 23 q=28.0 size=     172KiB time=00:00:09.64 bitrate= 145.9kbits/s speed=0.917x elapsed=0:00:10.51    frame=  256 fps= 23 q=28.0 size=     256KiB time=00:00:10.16 bitrate= 206.4kbits/s speed=0.923x elapsed=0:00:11.01    frame=  268 fps= 23 q=28.0 size=     256KiB time=00:00:10.64 bitrate= 197.1kbits/s speed=0.924x elapsed=0:00:11.51    frame=  281 fps= 23 q=28.0 size=     256KiB time=00:00:11.16 bitrate= 187.9kbits/s speed=0.929x elapsed=0:00:12.01    frame=  293 fps= 23 q=28.0 size=     256KiB time=00:00:11.64 bitrate= 180.2kbits/s speed=0.93x elapsed=0:00:12.51    frame=  306 fps= 24 q=28.0 size=     256KiB time=00:00:12.16 bitrate= 172.5kbits/s speed=0.934x elapsed=0:00:13.01    frame=  318 fps= 24 q=28.0 size=     256KiB time=00:00:12.64 bitrate= 165.9kbits/s speed=0.935x elapsed=0:00:13.51    frame=  331 fps= 24 q=28.0 size=     256KiB time=00:00:13.16 bitrate= 159.4kbits/s speed=0.939x elapsed=0:00:14.01    frame=  343 fps= 24 q=28.0 size=     256KiB time=00:00:13.64 bitrate= 153.8kbits/s speed=0.94x elapsed=0:00:14.51    frame=  356 fps= 24 q=28.0 size=     256KiB time=00:00:14.16 bitrate= 148.1kbits/s speed=0.943x elapsed=0:00:15.01    frame=  368 fps= 24 q=28.0 size=     256KiB time=00:00:14.68 bitrate= 142.9kbits/s speed=0.946x elapsed=0:00:15.52    frame=  381 fps= 24 q=28.0 size=     256KiB time=00:00:15.16 bitrate= 138.3kbits/s speed=0.946x elapsed=0:00:16.02    frame=  393 fps= 24 q=28.0 size=     256KiB time=00:00:15.64 bitrate= 134.1kbits/s speed=0.947x elapsed=0:00:16.52    frame=  406 fps= 24 q=28.0 size=     256KiB time=00:00:16.16 bitrate= 129.8kbits/s speed=0.949x elapsed=0:00:17.02    frame=  419 fps= 24 q=28.0 size=     256KiB time=00:00:16.68 bitrate= 125.7kbits/s speed=0.952x elapsed=0:00:17.52    frame=  431 fps= 24 q=28.0 size=     256KiB time=00:00:17.16 bitrate= 122.2kbits/s speed=0.952x elapsed=0:00:18.02    frame=  444 fps= 24 q=28.0 size=     256KiB time=00:00:17.68 bitrate= 118.6kbits/s speed=0.954x elapsed=0:00:18.52    frame=  456 fps= 24 q=28.0 size=     256KiB time=00:00:18.16 bitrate= 115.5kbits/s speed=0.954x elapsed=0:00:19.02    frame=  469 fps= 24 q=28.0 size=     256KiB time=00:00:18.68 bitrate= 112.3kbits/s speed=0.956x elapsed=0:00:19.53    frame=  481 fps= 24 q=28.0 size=     256KiB time=00:00:19.16 bitrate= 109.5kbits/s speed=0.956x elapsed=0:00:20.03    frame=  494 fps= 24 q=28.0 size=     256KiB time=00:00:19.68 bitrate= 106.6kbits/s speed=0.958x elapsed=0:00:20.53    frame=  507 fps= 24 q=28.0 size=     512KiB time=00:00:20.20 bitrate= 207.6kbits/s speed=0.96x elapsed=0:00:21.03    frame=  519 fps= 24 q=28.0 size=     512KiB time=00:00:20.68 bitrate= 202.8kbits/s speed=0.96x elapsed=0:00:21.53    frame=  531 fps= 24 q=28.0 size=     512KiB time=00:00:21.16 bitrate= 198.2kbits/s speed=0.96x elapsed=0:00:22.03    frame=  544 fps= 24 q=28.0 size=     512KiB time=00:00:21.68 bitrate= 193.5kbits/s speed=0.962x elapsed=0:00:22.53    frame=  557 fps= 24 q=28.0 size=     512KiB time=00:00:22.20 bitrate= 188.9kbits/s speed=0.964x elapsed=0:00:23.03    frame=  569 fps= 24 q=28.0 size=     512KiB time=00:00:22.68 bitrate= 184.9kbits/s speed=0.963x elapsed=0:00:23.53    frame=  582 fps= 24 q=28.0 size=     512KiB time=00:00:23.20 bitrate= 180.8kbits/s speed=0.965x elapsed=0:00:24.04    frame=  594 fps= 24 q=28.0 size=     512KiB time=00:00:23.68 bitrate= 177.1kbits/s speed=0.965x elapsed=0:00:24.54    frame=  606 fps= 24 q=28.0 size=     512KiB time=00:00:24.16 bitrate= 173.6kbits/s speed=0.965x elapsed=0:00:25.04    frame=  619 fps= 24 q=28.0 size=     512KiB time=00:00:24.68 bitrate= 169.9kbits/s speed=0.966x elapsed=0:00:25.54    frame=  631 fps= 24 q=28.0 size=     768KiB time=00:00:25.16 bitrate= 250.1kbits/s speed=0.966x elapsed=0:00:26.04    frame=  644 fps= 24 q=28.0 size=     768KiB time=00:00:25.68 bitrate= 245.0kbits/s speed=0.968x elapsed=0:00:26.54    frame=  657 fps= 24 q=28.0 size=     768KiB time=00:00:26.20 bitrate= 240.1kbits/s speed=0.969x elapsed=0:00:27.04    frame=  669 fps= 24 q=28.0 size=     768KiB time=00:00:26.68 bitrate= 235.8kbits/s speed=0.969x elapsed=0:00:27.54    frame=  682 fps= 24 q=28.0 size=     768KiB time=00:00:27.20 bitrate= 231.3kbits/s speed=0.97x elapsed=0:00:28.04    frame=  694 fps= 24 q=28.0 size=     768KiB time=00:00:27.68 bitrate= 227.3kbits/s speed=0.97x elapsed=0:00:28.54    frame=  707 fps= 24 q=28.0 size=     768KiB time=00:00:28.20 bitrate= 223.1kbits/s speed=0.971x elapsed=0:00:29.05    frame=  719 fps= 24 q=28.0 size=     768KiB time=00:00:28.68 bitrate= 219.4kbits/s speed=0.971x elapsed=0:00:29.55    frame=  732 fps= 24 q=28.0 size=     768KiB time=00:00:29.20 bitrate= 215.5kbits/s speed=0.972x elapsed=0:00:30.05    frame=  744 fps= 24 q=28.0 size=     768KiB time=00:00:29.68 bitrate= 212.0kbits/s speed=0.971x elapsed=0:00:30.55    frame=  757 fps= 24 q=28.0 size=     768KiB time=00:00:30.20 bitrate= 208.3kbits/s speed=0.973x elapsed=0:00:31.05    frame=  769 fps= 24 q=28.0 size=     768KiB time=00:00:30.68 bitrate= 205.1kbits/s speed=0.972x elapsed=0:00:31.55    frame=  782 fps= 24 q=28.0 size=     768KiB time=00:00:31.20 bitrate= 201.6kbits/s speed=0.973x elapsed=0:00:32.05    frame=  794 fps= 24 q=28.0 size=     768KiB time=00:00:31.68 bitrate= 198.6kbits/s speed=0.973x elapsed=0:00:32.55    frame=  807 fps= 24 q=28.0 size=     768KiB time=00:00:32.20 bitrate= 195.4kbits/s speed=0.974x elapsed=0:00:33.05    frame=  819 fps= 24 q=28.0 size=     768KiB time=00:00:32.68 bitrate= 192.5kbits/s speed=0.974x elapsed=0:00:33.55    frame=  832 fps= 24 q=28.0 size=     768KiB time=00:00:33.20 bitrate= 189.5kbits/s speed=0.975x elapsed=0:00:34.05    frame=  844 fps= 24 q=28.0 size=     768KiB time=00:00:33.68 bitrate= 186.8kbits/s speed=0.975x elapsed=0:00:34.55    frame=  857 fps= 24 q=28.0 size=     768KiB time=00:00:34.20 bitrate= 184.0kbits/s speed=0.976x elapsed=0:00:35.05    frame=  869 fps= 24 q=28.0 size=     768KiB time=00:00:34.68 bitrate= 181.4kbits/s speed=0.975x elapsed=0:00:35.55    frame=  882 fps= 24 q=28.0 size=    1024KiB time=00:00:35.20 bitrate= 238.3kbits/s speed=0.976x elapsed=0:00:36.05    frame=  895 fps= 24 q=28.0 size=    1024KiB time=00:00:35.72 bitrate= 234.8kbits/s speed=0.977x elapsed=0:00:36.55    frame=  907 fps= 24 q=28.0 size=    1024KiB time=00:00:36.20 bitrate= 231.7kbits/s speed=0.977x elapsed=0:00:37.06    frame=  919 fps= 24 q=28.0 size=    1024KiB time=00:00:36.68 bitrate= 228.7kbits/s speed=0.977x elapsed=0:00:37.56    frame=  932 fps= 24 q=28.0 size=    1024KiB time=00:00:37.20 bitrate= 225.5kbits/s speed=0.977x elapsed=0:00:38.06    frame=  944 fps= 24 q=28.0 size=    1024KiB time=00:00:37.68 bitrate= 222.6kbits/s speed=0.977x elapsed=0:00:38.56    frame=  957 fps= 24 q=28.0 size=    1024KiB time=00:00:38.20 bitrate= 219.6kbits/s speed=0.978x elapsed=0:00:39.06    frame=  969 fps= 24 q=28.0 size=    1024KiB time=00:00:38.68 bitrate= 216.9kbits/s speed=0.978x elapsed=0:00:39.56    frame=  982 fps= 25 q=28.0 size=    1024KiB time=00:00:39.20 bitrate= 214.0kbits/s speed=0.978x elapsed=0:00:40.06    frame=  995 fps= 25 q=28.0 size=    1024KiB time=00:00:39.72 bitrate= 211.2kbits/s speed=0.979x elapsed=0:00:40.56    frame= 1007 fps= 25 q=28.0 size=    1024KiB time=00:00:40.20 bitrate= 208.7kbits/s speed=0.979x elapsed=0:00:41.06    frame= 1020 fps= 25 q=28.0 size=    1024KiB time=00:00:40.72 bitrate= 206.0kbits/s speed=0.98x elapsed=0:00:41.56    frame= 1032 fps= 25 q=28.0 size=    1024KiB time=00:00:41.20 bitrate= 203.6kbits/s speed=0.979x elapsed=0:00:42.06    frame= 1045 fps= 25 q=28.0 size=    1024KiB time=00:00:41.72 bitrate= 201.1kbits/s speed=0.98x elapsed=0:00:42.56    frame= 1057 fps= 25 q=28.0 size=    1024KiB time=00:00:42.20 bitrate= 198.8kbits/s speed=0.98x elapsed=0:00:43.06    frame= 1070 fps= 25 q=28.0 size=    1024KiB time=00:00:42.72 bitrate= 196.4kbits/s speed=0.981x elapsed=0:00:43.56    frame= 1082 fps= 25 q=28.0 size=    1024KiB time=00:00:43.20 bitrate= 194.2kbits/s speed=0.98x elapsed=0:00:44.06    frame= 1094 fps= 25 q=28.0 size=    1024KiB time=00:00:43.68 bitrate= 192.0kbits/s speed=0.98x elapsed=0:00:44.56    frame= 1107 fps= 25 q=28.0 size=    1024KiB time=00:00:44.20 bitrate= 189.8kbits/s speed=0.981x elapsed=0:00:45.06    frame= 1119 fps= 25 q=28.0 size=    1024KiB time=00:00:44.68 bitrate= 187.7kbits/s speed=0.98x elapsed=0:00:45.56    frame= 1132 fps= 25 q=28.0 size=    1280KiB time=00:00:45.20 bitrate= 232.0kbits/s speed=0.981x elapsed=0:00:46.06    frame= 1145 fps= 25 q=28.0 size=    1280KiB time=00:00:45.72 bitrate= 229.3kbits/s speed=0.982x elapsed=0:00:46.56    frame= 1157 fps= 25 q=28.0 size=    1280KiB time=00:00:46.20 bitrate= 227.0kbits/s speed=0.981x elapsed=0:00:47.07    frame= 1170 fps= 25 q=28.0 size=    1280KiB time=00:00:46.72 bitrate= 224.4kbits/s speed=0.982x elapsed=0:00:47.57    frame= 1182 fps= 25 q=28.0 size=    1280KiB time=00:00:47.20 bitrate= 222.2kbits/s speed=0.982x elapsed=0:00:48.07    frame= 1195 fps= 25 q=28.0 size=    1280KiB time=00:00:47.72 bitrate= 219.7kbits/s speed=0.982x elapsed=0:00:48.57    frame= 1208 fps= 25 q=28.0 size=    1280KiB time=00:00:48.24 bitrate= 217.4kbits/s speed=0.983x elapsed=0:00:49.07    frame= 1220 fps= 25 q=28.0 size=    1280KiB time=00:00:48.72 bitrate= 215.2kbits/s speed=0.983x elapsed=0:00:49.57    frame= 1233 fps= 25 q=28.0 size=    1280KiB time=00:00:49.24 bitrate= 213.0kbits/s speed=0.983x elapsed=0:00:50.07    frame= 1245 fps= 25 q=28.0 size=    1280KiB time=00:00:49.72 bitrate= 210.9kbits/s speed=0.983x elapsed=0:00:50.57    frame= 1257 fps= 25 q=28.0 size=    1280KiB time=00:00:50.24 bitrate= 208.7kbits/s speed=0.984x elapsed=0:00:51.07    frame= 1270 fps= 25 q=28.0 size=    1280KiB time=00:00:50.72 bitrate= 206.7kbits/s speed=0.983x elapsed=0:00:51.57    frame= 1282 fps= 25 q=28.0 size=    1280KiB time=00:00:51.20 bitrate= 204.8kbits/s speed=0.983x elapsed=0:00:52.08    frame= 1295 fps= 25 q=28.0 size=    1280KiB time=00:00:51.72 bitrate= 202.7kbits/s speed=0.984x elapsed=0:00:52.58    frame= 1307 fps= 25 q=28.0 size=    1280KiB time=00:00:52.20 bitrate= 200.9kbits/s speed=0.983x elapsed=0:00:53.08    frame= 1320 fps= 25 q=28.0 size=    1280KiB time=00:00:52.72 bitrate= 198.9kbits/s speed=0.984x elapsed=0:00:53.58    frame= 1332 fps= 25 q=28.0 size=    1280KiB time=00:00:53.20 bitrate= 197.1kbits/s speed=0.984x elapsed=0:00:54.08    frame= 1345 fps= 25 q=28.0 size=    1280KiB time=00:00:53.72 bitrate= 195.2kbits/s speed=0.984x elapsed=0:00:54.58    frame= 1358 fps= 25 q=28.0 size=    1280KiB time=00:00:54.24 bitrate= 193.3kbits/s speed=0.985x elapsed=0:00:55.08    frame= 1370 fps= 25 q=28.0 size=    1280KiB time=00:00:54.72 bitrate= 191.6kbits/s speed=0.984x elapsed=0:00:55.58    frame= 1383 fps= 25 q=28.0 size=    1536KiB time=00:00:55.24 bitrate= 227.8kbits/s speed=0.985x elapsed=0:00:56.08    frame= 1395 fps= 25 q=28.0 size=    1536KiB time=00:00:55.72 bitrate= 225.8kbits/s speed=0.985x elapsed=0:00:56.59    frame= 1408 fps= 25 q=28.0 size=    1536KiB time=00:00:56.24 bitrate= 223.7kbits/s speed=0.985x elapsed=0:00:57.09    frame= 1420 fps= 25 q=28.0 size=    1536KiB time=00:00:56.72 bitrate= 221.8kbits/s speed=0.985x elapsed=0:00:57.59    frame= 1433 fps= 25 q=28.0 size=    1536KiB time=00:00:57.24 bitrate= 219.8kbits/s speed=0.985x elapsed=0:00:58.09    frame= 1445 fps= 25 q=28.0 size=    1536KiB time=00:00:57.72 bitrate= 218.0kbits/s speed=0.985x elapsed=0:00:58.59    frame= 1458 fps= 25 q=28.0 size=    1536KiB time=00:00:58.24 bitrate= 216.1kbits/s speed=0.986x elapsed=0:00:59.09    frame= 1470 fps= 25 q=28.0 size=    1536KiB time=00:00:58.72 bitrate= 214.3kbits/s speed=0.985x elapsed=0:00:59.59    frame= 1483 fps= 25 q=28.0 size=    1536KiB time=00:00:59.24 bitrate= 212.4kbits/s speed=0.986x elapsed=0:01:00.09    frame= 1495 fps= 25 q=28.0 size=    1536KiB time=00:00:59.72 bitrate= 210.7kbits/s speed=0.986x elapsed=0:01:00.59    frame= 1508 fps= 25 q=28.0 size=    1792KiB time=00:01:00.24 bitrate= 243.7kbits/s speed=0.986x elapsed=0:01:01.09    frame= 1520 fps= 25 q=28.0 size=    1792KiB time=00:01:00.72 bitrate= 241.8kbits/s speed=0.986x elapsed=0:01:01.59    frame= 1533 fps= 25 q=28.0 size=    1792KiB time=00:01:01.24 bitrate= 239.7kbits/s speed=0.986x elapsed=0:01:02.09    frame= 1545 fps= 25 q=28.0 size=    1792KiB time=00:01:01.72 bitrate= 237.8kbits/s speed=0.986x elapsed=0:01:02.59    frame= 1558 fps= 25 q=28.0 size=    1792KiB time=00:01:02.24 bitrate= 235.9kbits/s speed=0.986x elapsed=0:01:03.09    frame= 1570 fps= 25 q=28.0 size=    1792KiB time=00:01:02.72 bitrate= 234.1kbits/s speed=0.986x elapsed=0:01:03.59    frame= 1583 fps= 25 q=28.0 size=    1792KiB time=00:01:03.24 bitrate= 232.1kbits/s speed=0.987x elapsed=0:01:04.09    frame= 1595 fps= 25 q=28.0 size=    1792KiB time=00:01:03.72 bitrate= 230.4kbits/s speed=0.986x elapsed=0:01:04.59    frame= 1607 fps= 25 q=28.0 size=    1792KiB time=00:01:04.20 bitrate= 228.7kbits/s speed=0.986x elapsed=0:01:05.09    frame= 1621 fps= 25 q=28.0 size=    1792KiB time=00:01:04.76 bitrate= 226.7kbits/s speed=0.987x elapsed=0:01:05.59    frame= 1633 fps= 25 q=28.0 size=    2048KiB time=00:01:05.24 bitrate= 257.2kbits/s speed=0.987x elapsed=0:01:06.09    frame= 1646 fps= 25 q=28.0 size=    2048KiB time=00:01:05.76 bitrate= 255.1kbits/s speed=0.987x elapsed=0:01:06.61    frame= 1659 fps= 25 q=28.0 size=    2048KiB time=00:01:06.28 bitrate= 253.1kbits/s speed=0.988x elapsed=0:01:07.11    frame= 1671 fps= 25 q=28.0 size=    2048KiB time=00:01:06.76 bitrate= 251.3kbits/s speed=0.987x elapsed=0:01:07.61    frame= 1684 fps= 25 q=28.0 size=    2048KiB time=00:01:07.28 bitrate= 249.4kbits/s speed=0.988x elapsed=0:01:08.11    frame= 1696 fps= 25 q=28.0 size=    2048KiB time=00:01:07.76 bitrate= 247.6kbits/s speed=0.987x elapsed=0:01:08.61    frame= 1709 fps= 25 q=28.0 size=    2048KiB time=00:01:08.28 bitrate= 245.7kbits/s speed=0.988x elapsed=0:01:09.11    frame= 1721 fps= 25 q=28.0 size=    2048KiB time=00:01:08.76 bitrate= 244.0kbits/s speed=0.988x elapsed=0:01:09.61    frame= 1733 fps= 25 q=28.0 size=    2048KiB time=00:01:09.24 bitrate= 242.3kbits/s speed=0.987x elapsed=0:01:10.11    frame= 1746 fps= 25 q=25.0 size=    2048KiB time=00:01:09.76 bitrate= 240.5kbits/s speed=0.988x elapsed=0:01:10.61    frame= 1758 fps= 25 q=28.0 size=    2048KiB time=00:01:10.24 bitrate= 238.9kbits/s speed=0.988x elapsed=0:01:11.11    frame= 1771 fps= 25 q=28.0 size=    2048KiB time=00:01:10.76 bitrate= 237.1kbits/s speed=0.988x elapsed=0:01:11.61    frame= 1783 fps= 25 q=28.0 size=    2048KiB time=00:01:11.24 bitrate= 235.5kbits/s speed=0.988x elapsed=0:01:12.11    frame= 1796 fps= 25 q=28.0 size=    2048KiB time=00:01:11.76 bitrate= 233.8kbits/s speed=0.988x elapsed=0:01:12.62    frame= 1809 fps= 25 q=28.0 size=    2048KiB time=00:01:12.28 bitrate= 232.1kbits/s speed=0.988x elapsed=0:01:13.12    frame= 1821 fps= 25 q=28.0 size=    2048KiB time=00:01:12.76 bitrate= 230.6kbits/s speed=0.988x elapsed=0:01:13.62    frame= 1834 fps= 25 q=28.0 size=    2048KiB time=00:01:13.28 bitrate= 228.9kbits/s speed=0.989x elapsed=0:01:14.12    frame= 1846 fps= 25 q=28.0 size=    2048KiB time=00:01:13.76 bitrate= 227.5kbits/s speed=0.988x elapsed=0:01:14.62    frame= 1859 fps= 25 q=28.0 size=    2048KiB time=00:01:14.28 bitrate= 225.9kbits/s speed=0.989x elapsed=0:01:15.12    frame= 1871 fps= 25 q=28.0 size=    2048KiB time=00:01:14.76 bitrate= 224.4kbits/s speed=0.989x elapsed=0:01:15.62    frame= 1884 fps= 25 q=28.0 size=    2304KiB time=00:01:15.28 bitrate= 250.7kbits/s speed=0.989x elapsed=0:01:16.12    frame= 1896 fps= 25 q=28.0 size=    2304KiB time=00:01:15.76 bitrate= 249.1kbits/s speed=0.989x elapsed=0:01:16.62    frame= 1909 fps= 25 q=28.0 size=    2304KiB time=00:01:16.28 bitrate= 247.4kbits/s speed=0.989x elapsed=0:01:17.12    frame= 1921 fps= 25 q=28.0 size=    2304KiB time=00:01:16.76 bitrate= 245.9kbits/s speed=0.989x elapsed=0:01:17.62    frame= 1934 fps= 25 q=28.0 size=    2304KiB time=00:01:17.28 bitrate= 244.2kbits/s speed=0.989x elapsed=0:01:18.12    frame= 1946 fps= 25 q=28.0 size=    2304KiB time=00:01:17.76 bitrate= 242.7kbits/s speed=0.989x elapsed=0:01:18.62    frame= 1959 fps= 25 q=28.0 size=    2304KiB time=00:01:18.28 bitrate= 241.1kbits/s speed=0.989x elapsed=0:01:19.12    frame= 1971 fps= 25 q=28.0 size=    2304KiB time=00:01:18.76 bitrate= 239.6kbits/s speed=0.989x elapsed=0:01:19.62    frame= 1984 fps= 25 q=28.0 size=    2304KiB time=00:01:19.28 bitrate= 238.1kbits/s speed=0.989x elapsed=0:01:20.12    frame= 1996 fps= 25 q=25.0 size=    2304KiB time=00:01:19.76 bitrate= 236.6kbits/s speed=0.989x elapsed=0:01:20.62    frame= 2009 fps= 25 q=28.0 size=    2304KiB time=00:01:20.28 bitrate= 235.1kbits/s speed=0.99x elapsed=0:01:21.13    frame= 2021 fps= 25 q=28.0 size=    2304KiB time=00:01:20.76 bitrate= 233.7kbits/s speed=0.989x elapsed=0:01:21.63    frame= 2034 fps= 25 q=28.0 size=    2304KiB time=00:01:21.28 bitrate= 232.2kbits/s speed=0.99x elapsed=0:01:22.13    frame= 2046 fps= 25 q=28.0 size=    2304KiB time=00:01:21.76 bitrate= 230.9kbits/s speed=0.989x elapsed=0:01:22.63    frame= 2058 fps= 25 q=28.0 size=    2304KiB time=00:01:22.24 bitrate= 229.5kbits/s speed=0.989x elapsed=0:01:23.13    frame= 2072 fps= 25 q=28.0 size=    2304KiB time=00:01:22.80 bitrate= 228.0kbits/s speed=0.99x elapsed=0:01:23.63    frame= 2084 fps= 25 q=28.0 size=    2304KiB time=00:01:23.28 bitrate= 226.6kbits/s speed=0.99x elapsed=0:01:24.13    frame= 2096 fps= 25 q=28.0 size=    2304KiB time=00:01:23.80 bitrate= 225.2kbits/s speed=0.99x elapsed=0:01:24.63    frame= 2109 fps= 25 q=28.0 size=    2304KiB time=00:01:24.28 bitrate= 223.9kbits/s speed=0.99x elapsed=0:01:25.13    frame= 2121 fps= 25 q=28.0 size=    2304KiB time=00:01:24.76 bitrate= 222.7kbits/s speed=0.99x elapsed=0:01:25.63    frame= 2134 fps= 25 q=28.0 size=    2560KiB time=00:01:25.28 bitrate= 245.9kbits/s speed=0.99x elapsed=0:01:26.13    frame= 2147 fps= 25 q=28.0 size=    2560KiB time=00:01:25.80 bitrate= 244.4kbits/s speed=0.99x elapsed=0:01:26.63    frame= 2159 fps= 25 q=28.0 size=    2560KiB time=00:01:26.28 bitrate= 243.1kbits/s speed=0.99x elapsed=0:01:27.13    frame= 2172 fps= 25 q=28.0 size=    2560KiB time=00:01:26.80 bitrate= 241.6kbits/s speed=0.99x elapsed=0:01:27.64    frame= 2184 fps= 25 q=28.0 size=    2560KiB time=00:01:27.28 bitrate= 240.3kbits/s speed=0.99x elapsed=0:01:28.14    frame= 2197 fps= 25 q=28.0 size=    2560KiB time=00:01:27.80 bitrate= 238.9kbits/s speed=0.991x elapsed=0:01:28.64    frame= 2209 fps= 25 q=28.0 size=    2560KiB time=00:01:28.28 bitrate= 237.6kbits/s speed=0.99x elapsed=0:01:29.14    frame= 2222 fps= 25 q=28.0 size=    2560KiB time=00:01:28.80 bitrate= 236.2kbits/s speed=0.991x elapsed=0:01:29.64    frame= 2234 fps= 25 q=28.0 size=    2560KiB time=00:01:29.28 bitrate= 234.9kbits/s speed=0.99x elapsed=0:01:30.14    frame= 2246 fps= 25 q=25.0 size=    2560KiB time=00:01:29.76 bitrate= 233.6kbits/s speed=0.99x elapsed=0:01:30.64    frame= 2259 fps= 25 q=28.0 size=    2560KiB time=00:01:30.28 bitrate= 232.3kbits/s speed=0.991x elapsed=0:01:31.14    frame= 2271 fps= 25 q=28.0 size=    2560KiB time=00:01:30.76 bitrate= 231.1kbits/s speed=0.99x elapsed=0:01:31.64    frame= 2284 fps= 25 q=28.0 size=    2560KiB time=00:01:31.28 bitrate= 229.7kbits/s speed=0.991x elapsed=0:01:32.14    frame= 2296 fps= 25 q=28.0 size=    2560KiB time=00:01:31.76 bitrate= 228.5kbits/s speed=0.99x elapsed=0:01:32.64    frame= 2309 fps= 25 q=28.0 size=    2560KiB time=00:01:32.28 bitrate= 227.3kbits/s speed=0.991x elapsed=0:01:33.14    frame= 2322 fps= 25 q=28.0 size=    2560KiB time=00:01:32.80 bitrate= 226.0kbits/s speed=0.991x elapsed=0:01:33.64    frame= 2334 fps= 25 q=28.0 size=    2560KiB time=00:01:33.28 bitrate= 224.8kbits/s speed=0.991x elapsed=0:01:34.14    frame= 2347 fps= 25 q=28.0 size=    2560KiB time=00:01:33.80 bitrate= 223.6kbits/s speed=0.991x elapsed=0:01:34.64    frame= 2359 fps= 25 q=28.0 size=    2560KiB time=00:01:34.28 bitrate= 222.4kbits/s speed=0.991x elapsed=0:01:35.15    frame= 2372 fps= 25 q=28.0 size=    2560KiB time=00:01:34.80 bitrate= 221.2kbits/s speed=0.991x elapsed=0:01:35.65    frame= 2384 fps= 25 q=28.0 size=    2816KiB time=00:01:35.28 bitrate= 242.1kbits/s speed=0.991x elapsed=0:01:36.15    frame= 2396 fps= 25 q=28.0 size=    2816KiB time=00:01:35.76 bitrate= 240.9kbits/s speed=0.991x elapsed=0:01:36.65    frame= 2409 fps= 25 q=28.0 size=    2816KiB time=00:01:36.28 bitrate= 239.6kbits/s speed=0.991x elapsed=0:01:37.15    frame= 2422 fps= 25 q=28.0 size=    2816KiB time=00:01:36.80 bitrate= 238.3kbits/s speed=0.991x elapsed=0:01:37.65    frame= 2434 fps= 25 q=28.0 size=    2816KiB time=00:01:37.28 bitrate= 237.1kbits/s speed=0.991x elapsed=0:01:38.15    frame= 2447 fps= 25 q=28.0 size=    2816KiB time=00:01:37.80 bitrate= 235.9kbits/s speed=0.991x elapsed=0:01:38.65    frame= 2459 fps= 25 q=28.0 size=    2816KiB time=00:01:38.28 bitrate= 234.7kbits/s speed=0.991x elapsed=0:01:39.15    frame= 2471 fps= 25 q=28.0 size=    2816KiB time=00:01:38.76 bitrate= 233.6kbits/s speed=0.991x elapsed=0:01:39.65    frame= 2484 fps= 25 q=28.0 size=    2816KiB time=00:01:39.28 bitrate= 232.4kbits/s speed=0.991x elapsed=0:01:40.15    frame= 2497 fps= 25 q=28.0 size=    2816KiB time=00:01:39.80 bitrate= 231.1kbits/s speed=0.992x elapsed=0:01:40.65    frame= 2509 fps= 25 q=28.0 size=    3072KiB time=00:01:40.28 bitrate= 251.0kbits/s speed=0.991x elapsed=0:01:41.15    frame= 2522 fps= 25 q=28.0 size=    3072KiB time=00:01:40.80 bitrate= 249.7kbits/s speed=0.992x elapsed=0:01:41.65    frame= 2534 fps= 25 q=28.0 size=    3072KiB time=00:01:41.28 bitrate= 248.5kbits/s speed=0.991x elapsed=0:01:42.15    frame= 2547 fps= 25 q=28.0 size=    3072KiB time=00:01:41.80 bitrate= 247.2kbits/s speed=0.992x elapsed=0:01:42.65    frame= 2559 fps= 25 q=28.0 size=    3072KiB time=00:01:42.28 bitrate= 246.0kbits/s speed=0.991x elapsed=0:01:43.15    frame= 2572 fps= 25 q=28.0 size=    3072KiB time=00:01:42.80 bitrate= 244.8kbits/s speed=0.992x elapsed=0:01:43.65    frame= 2584 fps= 25 q=28.0 size=    3072KiB time=00:01:43.28 bitrate= 243.7kbits/s speed=0.992x elapsed=0:01:44.15    frame= 2597 fps= 25 q=28.0 size=    3072KiB time=00:01:43.80 bitrate= 242.4kbits/s speed=0.992x elapsed=0:01:44.65    frame= 2610 fps= 25 q=28.0 size=    3072KiB time=00:01:44.32 bitrate= 241.2kbits/s speed=0.992x elapsed=0:01:45.15    frame= 2622 fps= 25 q=28.0 size=    3072KiB time=00:01:44.80 bitrate= 240.1kbits/s speed=0.992x elapsed=0:01:45.66    frame= 2634 fps= 25 q=28.0 size=    3072KiB time=00:01:45.28 bitrate= 239.0kbits/s speed=0.992x elapsed=0:01:46.16    frame= 2647 fps= 25 q=28.0 size=    3072KiB time=00:01:45.80 bitrate= 237.9kbits/s speed=0.992x elapsed=0:01:46.66    frame= 2659 fps= 25 q=28.0 size=    3072KiB time=00:01:46.32 bitrate= 236.7kbits/s speed=0.992x elapsed=0:01:47.16    frame= 2672 fps= 25 q=28.0 size=    3072KiB time=00:01:46.80 bitrate= 235.6kbits/s speed=0.992x elapsed=0:01:47.66    frame= 2685 fps= 25 q=28.0 size=    3072KiB time=00:01:47.32 bitrate= 234.5kbits/s speed=0.992x elapsed=0:01:48.16    frame= 2697 fps= 25 q=28.0 size=    3072KiB time=00:01:47.80 bitrate= 233.4kbits/s speed=0.992x elapsed=0:01:48.66    frame= 2709 fps= 25 q=28.0 size=    3072KiB time=00:01:48.28 bitrate= 232.4kbits/s speed=0.992x elapsed=0:01:49.16    frame= 2722 fps= 25 q=28.0 size=    3072KiB time=00:01:48.80 bitrate= 231.3kbits/s speed=0.992x elapsed=0:01:49.66    frame= 2735 fps= 25 q=28.0 size=    3072KiB time=00:01:49.32 bitrate= 230.2kbits/s speed=0.992x elapsed=0:01:50.16    frame= 2747 fps= 25 q=28.0 size=    3072KiB time=00:01:49.80 bitrate= 229.2kbits/s speed=0.992x elapsed=0:01:50.66    frame= 2760 fps= 25 q=28.0 size=    3328KiB time=00:01:50.32 bitrate= 247.1kbits/s speed=0.992x elapsed=0:01:51.17    frame= 2772 fps= 25 q=28.0 size=    3328KiB time=00:01:50.80 bitrate= 246.1kbits/s speed=0.992x elapsed=0:01:51.67    frame= 2784 fps= 25 q=28.0 size=    3328KiB time=00:01:51.28 bitrate= 245.0kbits/s speed=0.992x elapsed=0:01:52.17    frame= 2797 fps= 25 q=28.0 size=    3328KiB time=00:01:51.80 bitrate= 243.9kbits/s speed=0.992x elapsed=0:01:52.67    frame= 2810 fps= 25 q=28.0 size=    3328KiB time=00:01:52.32 bitrate= 242.7kbits/s speed=0.992x elapsed=0:01:53.17    frame= 2822 fps= 25 q=28.0 size=    3328KiB time=00:01:52.80 bitrate= 241.7kbits/s speed=0.992x elapsed=0:01:53.67    frame= 2835 fps= 25 q=28.0 size=    3328KiB time=00:01:53.32 bitrate= 240.6kbits/s speed=0.992x elapsed=0:01:54.17    frame= 2847 fps= 25 q=28.0 size=    3328KiB time=00:01:53.80 bitrate= 239.6kbits/s speed=0.992x elapsed=0:01:54.67    frame= 2860 fps= 25 q=28.0 size=    3328KiB time=00:01:54.32 bitrate= 238.5kbits/s speed=0.993x elapsed=0:01:55.17    frame= 2873 fps= 25 q=28.0 size=    3328KiB time=00:01:54.84 bitrate= 237.4kbits/s speed=0.993x elapsed=0:01:55.67    frame= 2885 fps= 25 q=28.0 size=    3584KiB time=00:01:55.32 bitrate= 254.6kbits/s speed=0.993x elapsed=0:01:56.17    frame= 2897 fps= 25 q=28.0 size=    3584KiB time=00:01:55.80 bitrate= 253.5kbits/s speed=0.992x elapsed=0:01:56.67    frame= 2910 fps= 25 q=28.0 size=    3584KiB time=00:01:56.32 bitrate= 252.4kbits/s speed=0.993x elapsed=0:01:57.17    frame= 2922 fps= 25 q=28.0 size=    3584KiB time=00:01:56.80 bitrate= 251.4kbits/s speed=0.993x elapsed=0:01:57.67    frame= 2935 fps= 25 q=28.0 size=    3584KiB time=00:01:57.32 bitrate= 250.3kbits/s speed=0.993x elapsed=0:01:58.17    frame= 2947 fps= 25 q=28.0 size=    3584KiB time=00:01:57.80 bitrate= 249.2kbits/s speed=0.993x elapsed=0:01:58.68    frame= 2960 fps= 25 q=28.0 size=    3584KiB time=00:01:58.32 bitrate= 248.1kbits/s speed=0.993x elapsed=0:01:59.18    frame= 2973 fps= 25 q=28.0 size=    3584KiB time=00:01:58.84 bitrate= 247.1kbits/s speed=0.993x elapsed=0:01:59.68    frame= 2985 fps= 25 q=28.0 size=    3584KiB time=00:01:59.32 bitrate= 246.1kbits/s speed=0.993x elapsed=0:02:00.18    frame= 2997 fps= 25 q=28.0 size=    3584KiB time=00:01:59.80 bitrate= 245.1kbits/s speed=0.993x elapsed=0:02:00.68    frame= 3010 fps= 25 q=28.0 size=    3584KiB time=00:02:00.32 bitrate= 244.0kbits/s speed=0.993x elapsed=0:02:01.18    frame= 3022 fps= 25 q=28.0 size=    3584KiB time=00:02:00.80 bitrate= 243.0kbits/s speed=0.993x elapsed=0:02:01.68    frame= 3035 fps= 25 q=28.0 size=    3584KiB time=00:02:01.32 bitrate= 242.0kbits/s speed=0.993x elapsed=0:02:02.18    frame= 3048 fps= 25 q=28.0 size=    3584KiB time=00:02:01.84 bitrate= 241.0kbits/s speed=0.993x elapsed=0:02:02.68    frame= 3060 fps= 25 q=28.0 size=    3584KiB time=00:02:02.32 bitrate= 240.0kbits/s speed=0.993x elapsed=0:02:03.18    frame= 3073 fps= 25 q=28.0 size=    3584KiB time=00:02:02.84 bitrate= 239.0kbits/s speed=0.993x elapsed=0:02:03.68    frame= 3085 fps= 25 q=28.0 size=    3584KiB time=00:02:03.32 bitrate= 238.1kbits/s speed=0.993x elapsed=0:02:04.18    frame= 3097 fps= 25 q=28.0 size=    3584KiB time=00:02:03.80 bitrate= 237.2kbits/s speed=0.993x elapsed=0:02:04.68    frame= 3110 fps= 25 q=28.0 size=    3584KiB time=00:02:04.32 bitrate= 236.2kbits/s speed=0.993x elapsed=0:02:05.18    [out#0/matroska @ 0x55bd296d0500] video:3858KiB audio:0KiB subtitle:0KiB other streams:0KiB global headers:0KiB muxing overhead: 0.590320%
frame= 3143 fps= 25 q=-1.0 Lsize=    3881KiB time=00:02:05.64 bitrate= 253.1kbits/s speed=0.998x elapsed=0:02:05.84    
[libx264 @ 0x55bd296d1f00] frame I:13    Avg QP:11.65  size:117350
[libx264 @ 0x55bd296d1f00] frame P:792   Avg QP:17.22  size:  1653
[libx264 @ 0x55bd296d1f00] frame B:2338  Avg QP:24.35  size:   477
[libx264 @ 0x55bd296d1f00] consecutive B-frames:  0.7%  0.1%  0.4% 98.8%
[libx264 @ 0x55bd296d1f00] mb I  I16..4: 89.0%  1.9%  9.1%
[libx264 @ 0x55bd296d1f00] mb P  I16..4:  0.2%  0.1%  0.0%  P16..4:  0.3%  0.2%  0.1%  0.0%  0.0%    skip:99.2%
[libx264 @ 0x55bd296d1f00] mb B  I16..4:  0.0%  0.0%  0.0%  B16..8:  0.2%  0.1%  0.0%  direct: 0.0%  skip:99.6%  L0:45.4% L1:47.2% BI: 7.4%
[libx264 @ 0x55bd296d1f00] 8x8 transform intra:4.2% inter:2.3%
[libx264 @ 0x55bd296d1f00] coded y,uvDC,uvAC intra: 14.3% 20.6% 16.9% inter: 0.1% 0.1% 0.0%
[libx264 @ 0x55bd296d1f00] i16 v,h,dc,p: 69% 29%  2%  0%
[libx264 @ 0x55bd296d1f00] i8 v,h,dc,ddl,ddr,vr,hd,vl,hu: 13% 17% 64%  1%  1%  3%  1%  0%  1%
[libx264 @ 0x55bd296d1f00] i4 v,h,dc,ddl,ddr,vr,hd,vl,hu: 32% 28% 21%  3%  2%  6%  2%  4%  2%
[libx264 @ 0x55bd296d1f00] i8c dc,h,v,p: 62% 29%  9%  0%
[libx264 @ 0x55bd296d1f00] Weighted P-Frames: Y:0.0% UV:0.0%
[libx264 @ 0x55bd296d1f00] kb/s:251.38
Exiting normally, received signal 2.
